<svg height="558" width="720" xmlns="http://www.w3.org/2000/svg">
<rect height="558" fill="#555" width="720"></rect>
<text fill="#7f7" font-family="Courier New" font-size="12" xml:space="preserve">
<tspan x="10" y="26">18 megabytes installed</tspan>
<tspan x="10" y="42"></tspan>
<tspan x="10" y="58">node_modules</tspan>
<tspan x="10" y="74">├── UNMET PEER DEPENDENCY react@^0.14.0 || ^15.0.0-rc</tspan>
<tspan x="10" y="90">├── UNMET PEER DEPENDENCY react-dom@^0.14.0 || ^15.0.0-rc</tspan>
<tspan x="10" y="106">└─┬ react-tag-input@4.7.1 </tspan>
<tspan x="10" y="122">  ├── lodash@4.17.4 </tspan>
<tspan x="10" y="138">  ├─┬ prop-types@15.5.8 </tspan>
<tspan x="10" y="154">  │ └─┬ fbjs@0.8.12 </tspan>
<tspan x="10" y="170">  │   ├── core-js@1.2.7 </tspan>
<tspan x="10" y="186">  │   ├─┬ isomorphic-fetch@2.2.1 </tspan>
<tspan x="10" y="202">  │   │ ├─┬ node-fetch@1.6.3 </tspan>
<tspan x="10" y="218">  │   │ │ ├─┬ encoding@0.1.12 </tspan>
<tspan x="10" y="234">  │   │ │ │ └── iconv-lite@0.4.16 </tspan>
<tspan x="10" y="250">  │   │ │ └── is-stream@1.1.0 </tspan>
<tspan x="10" y="266">  │   │ └── whatwg-fetch@2.0.3 </tspan>
<tspan x="10" y="282">  │   ├─┬ loose-envify@1.3.1 </tspan>
<tspan x="10" y="298">  │   │ └── js-tokens@3.0.1 </tspan>
<tspan x="10" y="314">  │   ├── object-assign@4.1.1 </tspan>
<tspan x="10" y="330">  │   ├── promise@7.1.1 </tspan>
<tspan x="10" y="346">  │   ├── setimmediate@1.0.5 </tspan>
<tspan x="10" y="362">  │   └── ua-parser-js@0.7.12 </tspan>
<tspan x="10" y="378">  ├── UNMET PEER DEPENDENCY react@^0.14.0 || ^15.0.0-0</tspan>
<tspan x="10" y="394">  ├─┬ react-dnd@2.3.0 </tspan>
<tspan x="10" y="410">  │ ├── disposables@1.0.1 </tspan>
<tspan x="10" y="426">  │ ├─┬ dnd-core@2.3.0 </tspan>
<tspan x="10" y="442">  │ │ ├── asap@2.0.5 </tspan>
<tspan x="10" y="458">  │ │ └─┬ redux@3.6.0 </tspan>
<tspan x="10" y="474">  │ │   ├── lodash-es@4.17.4 </tspan>
<tspan x="10" y="490">  │ │   └── symbol-observable@1.0.4 </tspan>
<tspan x="10" y="506">  │ ├── hoist-non-react-statics@1.2.0 </tspan>
<tspan x="10" y="522">  │ └── invariant@2.2.2 </tspan>
<tspan x="10" y="538">  └── react-dnd-html5-backend@2.3.0</tspan>
</text>
</svg>
